Saira-PARAMETRIC-JUN_YOPQ180.ufo
<glyph name="ampersand" format="2">
  <advance width="735.63043"/>
  <unicode hex="0026"/>
  <outline>
    <contour>
      <point x="363" y="-8" type="curve" smooth="yes"/>
      <point x="435.652" y="-8"/>
      <point x="526.63" y="1"/>
      <point x="582.217" y="10.717" type="curve"/>
      <point x="582.217" y="312.978" type="line"/>
      <point x="697.696" y="312.978" type="line"/>
      <point x="697.696" y="383.391" type="line"/>
      <point x="501.565" y="383.391" type="line"/>
      <point x="501.565" y="30.761" type="line"/>
      <point x="532.826" y="73.152" type="line"/>
      <point x="480.348" y="64.5"/>
      <point x="419.652" y="61.5"/>
      <point x="363" y="61.5" type="curve" smooth="yes"/>
      <point x="215.109" y="61.5"/>
      <point x="150.587" y="78.239"/>
      <point x="150.587" y="186.783" type="curve" smooth="yes"/>
      <point x="150.587" y="269"/>
      <point x="165.043" y="312.978"/>
      <point x="297.696" y="312.978" type="curve" smooth="yes"/>
      <point x="393.13" y="312.978" type="line"/>
      <point x="393.13" y="383.391" type="line"/>
      <point x="297.696" y="383.391" type="line" smooth="yes"/>
      <point x="165.587" y="383.391"/>
      <point x="156.587" y="444.761"/>
      <point x="156.587" y="502.674" type="curve" smooth="yes"/>
      <point x="156.587" y="592.913"/>
      <point x="182.783" y="625.957"/>
      <point x="386.261" y="625.957" type="curve" smooth="yes"/>
      <point x="436.239" y="625.957"/>
      <point x="517.587" y="619.5"/>
      <point x="578.217" y="611.043" type="curve"/>
      <point x="578.217" y="677.283" type="line"/>
      <point x="516.696" y="687.913"/>
      <point x="425.804" y="696"/>
      <point x="362" y="696" type="curve" smooth="yes"/>
      <point x="121.109" y="696"/>
      <point x="73.761" y="619.304"/>
      <point x="73.761" y="515" type="curve" smooth="yes"/>
      <point x="73.761" y="415"/>
      <point x="112.761" y="372"/>
      <point x="192.761" y="353" type="curve"/>
      <point x="192.761" y="349" type="line"/>
      <point x="111.761" y="330"/>
      <point x="67.761" y="296"/>
      <point x="67.761" y="184" type="curve" smooth="yes"/>
      <point x="67.761" y="68.696"/>
      <point x="104.848" y="-8"/>
    </contour>
  </outline>
</glyph>
<glyph name="comma" format="2">
  <advance width="210"/>
  <unicode hex="002C"/>
  <outline>
    <contour>
      <point x="39" y="-180" type="line"/>
      <point x="139" y="-180"/>
      <point x="160" y="-150"/>
      <point x="160" y="0" type="curve" smooth="yes"/>
      <point x="160" y="200" type="line"/>
      <point x="50" y="200" type="line"/>
      <point x="50" y="0" type="line"/>
      <point x="97" y="0" type="line"/>
      <point x="97" y="-22" type="line" smooth="yes"/>
      <point x="97" y="-54"/>
      <point x="87" y="-60"/>
      <point x="39" y="-60" type="curve"/>
    </contour>
  </outline>
</glyph>
<glyph name="A" format="2">
  <advance width="770"/>
  <unicode hex="0041"/>
  <anchor x="385" y="0" name="bottom"/>
  <anchor x="693" y="10" name="ogonek"/>
  <anchor x="385" y="688" name="top"/>
  <outline>
    <contour>
      <point x="8" y="0" type="line"/>
      <point x="245" y="0" type="line"/>
      <point x="456" y="570" type="line"/>
      <point x="462" y="570" type="line"/>
      <point x="674" y="0" type="line"/>
      <point x="762" y="0" type="line"/>
      <point x="496" y="688" type="line"/>
      <point x="273" y="688" type="line"/>
    </contour>
    <contour>
      <point x="177" y="126" type="line"/>
      <point x="665" y="126" type="line"/>
      <point x="588" y="326" type="line"/>
      <point x="252" y="326" type="line"/>
    </contour>
  </outline>
</glyph>
<glyph name="B" format="2">
  <advance width="658"/>
  <unicode hex="0042"/>
  <anchor x="319" y="0" name="bottom"/>
  <anchor x="319" y="688" name="top"/>
  <outline>
    <contour>
      <point x="78" y="0" type="line"/>
      <point x="344" y="0" type="line" smooth="yes"/>
      <point x="539" y="0"/>
      <point x="592" y="38"/>
      <point x="592" y="180" type="curve" smooth="yes"/>
      <point x="592" y="187" type="line" smooth="yes"/>
      <point x="592" y="333"/>
      <point x="538" y="375"/>
      <point x="344" y="375" type="curve" smooth="yes"/>
      <point x="144" y="375" type="line"/>
      <point x="144" y="260" type="line"/>
      <point x="394" y="260" type="line" smooth="yes"/>
      <point x="493" y="260"/>
      <point x="510" y="255"/>
      <point x="510" y="225" type="curve" smooth="yes"/>
      <point x="510" y="214" type="line" smooth="yes"/>
      <point x="510" y="185"/>
      <point x="493" y="180"/>
      <point x="394" y="180" type="curve" smooth="yes"/>
      <point x="123" y="180" type="line"/>
      <point x="160" y="43" type="line"/>
      <point x="160" y="645" type="line"/>
      <point x="123" y="508" type="line"/>
      <point x="380" y="508" type="line" smooth="yes"/>
      <point x="479" y="508"/>
      <point x="496" y="504"/>
      <point x="496" y="479" type="curve" smooth="yes"/>
      <point x="496" y="469" type="line" smooth="yes"/>
      <point x="496" y="444"/>
      <point x="479" y="440"/>
      <point x="380" y="440" type="curve" smooth="yes"/>
      <point x="144" y="440" type="line"/>
      <point x="144" y="325" type="line"/>
      <point x="330" y="325" type="line" smooth="yes"/>
      <point x="524" y="325"/>
      <point x="578" y="366"/>
      <point x="578" y="507" type="curve" smooth="yes"/>
      <point x="578" y="514" type="line" smooth="yes"/>
      <point x="578" y="651"/>
      <point x="525" y="688"/>
      <point x="330" y="688" type="curve" smooth="yes"/>
      <point x="78" y="688" type="line"/>
    </contour>
  </outline>
</glyph>
<glyph name="C" format="2">
  <advance width="607"/>
  <unicode hex="0043"/>
  <anchor x="269" y="0" name="bottom"/>
  <anchor x="269" y="688" name="top"/>
  <outline>
    <contour>
      <point x="355" y="-8" type="curve" smooth="yes"/>
      <point x="417" y="-8"/>
      <point x="491" y="-3"/>
      <point x="533" y="5" type="curve"/>
      <point x="533" y="182" type="line"/>
      <point x="492" y="176"/>
      <point x="422" y="172"/>
      <point x="355" y="172" type="curve" smooth="yes"/>
      <point x="155" y="172"/>
      <point x="141" y="189"/>
      <point x="141" y="310" type="curve" smooth="yes"/>
      <point x="141" y="378" type="line" smooth="yes"/>
      <point x="141" y="499"/>
      <point x="155" y="516"/>
      <point x="355" y="516" type="curve" smooth="yes"/>
      <point x="419" y="516"/>
      <point x="481" y="512"/>
      <point x="529" y="506" type="curve"/>
      <point x="529" y="681" type="line"/>
      <point x="488" y="690"/>
      <point x="415" y="696"/>
      <point x="355" y="696" type="curve" smooth="yes"/>
      <point x="104" y="696"/>
      <point x="59" y="644"/>
      <point x="59" y="349" type="curve" smooth="yes"/>
      <point x="59" y="339" type="line" smooth="yes"/>
      <point x="59" y="44"/>
      <point x="104" y="-8"/>
    </contour>
  </outline>
</glyph>
<glyph name="D" format="2">
  <advance width="641"/>
  <unicode hex="0044"/>
  <anchor x="321" y="0" name="bottom"/>
  <anchor x="161" y="344" name="center"/>
  <anchor x="321" y="688" name="top"/>
  <outline>
    <contour>
      <point x="78" y="0" type="line"/>
      <point x="304" y="0" type="line" smooth="yes"/>
      <point x="540" y="0"/>
      <point x="582" y="51"/>
      <point x="582" y="339" type="curve" smooth="yes"/>
      <point x="582" y="349" type="line" smooth="yes"/>
      <point x="582" y="637"/>
      <point x="540" y="688"/>
      <point x="304" y="688" type="curve" smooth="yes"/>
      <point x="78" y="688" type="line"/>
    </contour>
    <contour>
      <point x="160" y="162" type="line"/>
      <point x="160" y="525" type="line"/>
      <point x="123" y="508" type="line"/>
      <point x="304" y="508" type="line" smooth="yes"/>
      <point x="485" y="508"/>
      <point x="500" y="499"/>
      <point x="500" y="377" type="curve" smooth="yes"/>
      <point x="500" y="311" type="line" smooth="yes"/>
      <point x="500" y="189"/>
      <point x="485" y="180"/>
      <point x="304" y="180" type="curve" smooth="yes"/>
      <point x="123" y="180" type="line"/>
    </contour>
  </outline>
</glyph>
<glyph name="E" format="2">
  <advance width="596"/>
  <unicode hex="0045"/>
  <anchor x="286" y="0" name="bottom"/>
  <anchor x="515" y="10" name="ogonek"/>
  <anchor x="286" y="688" name="top"/>
  <anchor x="20" y="688" name="topleft"/>
  <outline>
    <contour>
      <point x="123" y="438" type="line"/>
      <point x="123" y="258" type="line"/>
      <point x="510" y="258" type="line"/>
      <point x="510" y="438" type="line"/>
    </contour>
    <contour>
      <point x="160" y="100" type="line"/>
      <point x="160" y="588" type="line"/>
      <point x="123" y="508" type="line"/>
      <point x="557" y="508" type="line"/>
      <point x="557" y="688" type="line"/>
      <point x="78" y="688" type="line"/>
      <point x="78" y="0" type="line"/>
      <point x="557" y="0" type="line"/>
      <point x="557" y="180" type="line"/>
      <point x="123" y="180" type="line"/>
    </contour>
  </outline>
</glyph>
<glyph name="F" format="2">
  <advance width="578"/>
  <unicode hex="0046"/>
  <anchor x="277" y="0" name="bottom"/>
  <anchor x="277" y="688" name="top"/>
  <outline>
    <contour>
      <point x="123" y="398" type="line"/>
      <point x="123" y="218" type="line"/>
      <point x="500" y="218" type="line"/>
      <point x="500" y="398" type="line"/>
    </contour>
    <contour>
      <point x="160" y="0" type="line"/>
      <point x="160" y="588" type="line"/>
      <point x="123" y="508" type="line"/>
      <point x="547" y="508" type="line"/>
      <point x="547" y="688" type="line"/>
      <point x="78" y="688" type="line"/>
      <point x="78" y="0" type="line"/>
    </contour>
  </outline>
</glyph>
<glyph name="G" format="2">
  <advance width="641"/>
  <unicode hex="0047"/>
  <anchor x="320" y="0" name="bottom"/>
  <anchor x="320" y="688" name="top"/>
  <outline>
    <contour>
      <point x="381" y="-8" type="curve" smooth="yes"/>
      <point x="450" y="-8"/>
      <point x="525" y="1"/>
      <point x="567" y="15" type="curve"/>
      <point x="567" y="435" type="line"/>
      <point x="328" y="435" type="line"/>
      <point x="328" y="255" type="line"/>
      <point x="487" y="255" type="line"/>
      <point x="487" y="175" type="line"/>
      <point x="451" y="173"/>
      <point x="414" y="172"/>
      <point x="376" y="172" type="curve" smooth="yes"/>
      <point x="157" y="172"/>
      <point x="141" y="183"/>
      <point x="141" y="310" type="curve" smooth="yes"/>
      <point x="141" y="378" type="line" smooth="yes"/>
      <point x="141" y="507"/>
      <point x="157" y="516"/>
      <point x="376" y="516" type="curve" smooth="yes"/>
      <point x="444" y="516"/>
      <point x="511" y="514"/>
      <point x="562" y="511" type="curve"/>
      <point x="562" y="681" type="line"/>
      <point x="518" y="690"/>
      <point x="440" y="696"/>
      <point x="376" y="696" type="curve" smooth="yes"/>
      <point x="107" y="696"/>
      <point x="59" y="644"/>
      <point x="59" y="349" type="curve" smooth="yes"/>
      <point x="59" y="339" type="line" smooth="yes"/>
      <point x="59" y="44"/>
      <point x="108" y="-8"/>
    </contour>
  </outline>
</glyph>
<glyph name="H" format="2">
  <advance width="670"/>
  <unicode hex="0048"/>
  <anchor x="335" y="0" name="bottom"/>
  <anchor x="335" y="550" name="center"/>
  <anchor x="335" y="688" name="top"/>
  <anchor x="20" y="688" name="topleft"/>
  <outline>
    <contour>
      <point x="78" y="0" type="line"/>
      <point x="160" y="0" type="line"/>
      <point x="160" y="347" type="line"/>
      <point x="123" y="257" type="line"/>
      <point x="547" y="257" type="line"/>
      <point x="510" y="347" type="line"/>
      <point x="510" y="0" type="line"/>
      <point x="592" y="0" type="line"/>
      <point x="592" y="688" type="line"/>
      <point x="510" y="688" type="line"/>
      <point x="510" y="347" type="line"/>
      <point x="547" y="437" type="line"/>
      <point x="123" y="437" type="line"/>
      <point x="160" y="347" type="line"/>
      <point x="160" y="688" type="line"/>
      <point x="78" y="688" type="line"/>
    </contour>
  </outline>
</glyph>
<glyph name="I" format="2">
  <advance width="238"/>
  <unicode hex="0049"/>
  <anchor x="119" y="0" name="bottom"/>
  <anchor x="214" y="10" name="ogonek"/>
  <anchor x="119" y="688" name="top"/>
  <anchor x="20" y="688" name="topleft"/>
  <outline>
    <contour>
      <point x="78" y="0" type="line"/>
      <point x="160" y="0" type="line"/>
      <point x="160" y="688" type="line"/>
      <point x="78" y="688" type="line"/>
    </contour>
  </outline>
</glyph>
<glyph name="J" format="2">
  <advance width="296"/>
  <unicode hex="004A"/>
  <anchor x="148" y="0" name="bottom"/>
  <anchor x="148" y="688" name="top"/>
  <outline>
    <contour>
      <point x="218" y="688" type="line"/>
      <point x="136" y="688" type="line"/>
      <point x="136" y="271" type="line" smooth="yes"/>
      <point x="136" y="191"/>
      <point x="115" y="176"/>
      <point x="4" y="176" type="curve"/>
      <point x="4" y="-4" type="line"/>
      <point x="171" y="-4"/>
      <point x="218" y="57"/>
      <point x="218" y="278" type="curve" smooth="yes"/>
    </contour>
  </outline>
</glyph>
<glyph name="K" format="2">
  <advance width="695"/>
  <unicode hex="004B"/>
  <anchor x="318" y="0" name="bottom"/>
  <anchor x="318" y="688" name="top"/>
  <outline>
    <contour>
      <point x="155" y="260" type="line"/>
      <point x="395" y="260" type="line"/>
      <point x="584" y="0" type="line"/>
      <point x="687" y="0" type="line"/>
      <point x="431" y="350" type="line"/>
      <point x="677" y="688" type="line"/>
      <point x="401" y="688" type="line"/>
      <point x="220" y="440" type="line"/>
      <point x="155" y="440" type="line"/>
    </contour>
    <contour>
      <point x="78" y="0" type="line"/>
      <point x="160" y="0" type="line"/>
      <point x="160" y="688" type="line"/>
      <point x="78" y="688" type="line"/>
    </contour>
  </outline>
</glyph>
<glyph name="L" format="2">
  <advance width="551"/>
  <unicode hex="004C"/>
  <anchor x="264" y="0" name="bottom"/>
  <anchor x="264" y="344" name="center"/>
  <anchor x="264" y="688" name="top"/>
  <anchor x="508" y="688" name="topright"/>
  <outline>
    <contour>
      <point x="78" y="0" type="line"/>
      <point x="535" y="0" type="line"/>
      <point x="535" y="180" type="line"/>
      <point x="123" y="180" type="line"/>
      <point x="160" y="100" type="line"/>
      <point x="160" y="688" type="line"/>
      <point x="78" y="688" type="line"/>
    </contour>
  </outline>
</glyph>
<glyph name="M" format="2">
  <advance width="920"/>
  <unicode hex="004D"/>
  <guideline x="459" y="232" angle="290.9466" name=""/>
  <guideline x="459" y="232" angle="68.946" name=""/>
  <outline>
    <contour>
      <point x="78" y="0" type="line"/>
      <point x="308" y="0" type="line"/>
      <point x="308" y="465" type="line"/>
      <point x="486" y="0" type="line"/>
      <point x="581" y="0" type="line"/>
      <point x="760" y="465" type="line"/>
      <point x="760" y="0" type="line"/>
      <point x="842" y="0" type="line"/>
      <point x="842" y="688" type="line"/>
      <point x="636" y="688" type="line"/>
      <point x="459" y="232" type="line"/>
      <point x="284" y="688" type="line"/>
      <point x="78" y="688" type="line"/>
    </contour>
  </outline>
</glyph>
<glyph name="N" format="2">
  <advance width="966"/>
  <unicode hex="004E"/>
  <anchor x="609" y="0" name="bottom"/>
  <anchor x="609" y="688" name="top"/>
  <outline>
    <contour>
      <point x="78" y="0" type="line"/>
      <point x="308" y="0" type="line"/>
      <point x="308" y="543" type="line"/>
      <point x="653" y="0" type="line"/>
      <point x="888" y="0" type="line"/>
      <point x="888" y="688" type="line"/>
      <point x="658" y="688" type="line"/>
      <point x="658" y="145" type="line"/>
      <point x="313" y="688" type="line"/>
      <point x="78" y="688" type="line"/>
    </contour>
  </outline>
</glyph>
<glyph name="O" format="2">
  <advance width="674"/>
  <unicode hex="004F"/>
  <anchor x="337" y="-2" name="bottom"/>
  <anchor x="337" y="344" name="center"/>
  <anchor x="607" y="10" name="ogonek"/>
  <anchor x="337" y="688" name="top"/>
  <anchor x="19" y="688" name="topleft"/>
  <anchor x="655" y="688" name="topright"/>
  <outline>
    <contour>
      <point x="337" y="-8" type="curve" smooth="yes"/>
      <point x="573" y="-8"/>
      <point x="615" y="44"/>
      <point x="615" y="339" type="curve" smooth="yes"/>
      <point x="615" y="349" type="line" smooth="yes"/>
      <point x="615" y="644"/>
      <point x="573" y="696"/>
      <point x="337" y="696" type="curve" smooth="yes"/>
      <point x="101" y="696"/>
      <point x="59" y="644"/>
      <point x="59" y="349" type="curve" smooth="yes"/>
      <point x="59" y="339" type="line" smooth="yes"/>
      <point x="59" y="44"/>
      <point x="101" y="-8"/>
    </contour>
    <contour>
      <point x="337" y="172" type="curve" smooth="yes"/>
      <point x="154" y="172"/>
      <point x="141" y="184"/>
      <point x="141" y="325" type="curve" smooth="yes"/>
      <point x="141" y="363" type="line" smooth="yes"/>
      <point x="141" y="504"/>
      <point x="154" y="516"/>
      <point x="337" y="516" type="curve" smooth="yes"/>
      <point x="520" y="516"/>
      <point x="533" y="504"/>
      <point x="533" y="363" type="curve" smooth="yes"/>
      <point x="533" y="325" type="line" smooth="yes"/>
      <point x="533" y="184"/>
      <point x="520" y="172"/>
    </contour>
  </outline>
</glyph>
<glyph name="P" format="2">
  <advance width="556"/>
  <unicode hex="0050"/>
  <anchor x="278" y="0" name="bottom"/>
  <anchor x="278" y="688" name="top"/>
  <outline>
    <contour>
      <point x="78" y="0" type="line"/>
      <point x="160" y="0" type="line"/>
      <point x="160" y="541" type="line"/>
      <point x="123" y="508" type="line"/>
      <point x="355" y="508" type="line" smooth="yes"/>
      <point x="442" y="508"/>
      <point x="451" y="502"/>
      <point x="451" y="442" type="curve" smooth="yes"/>
      <point x="451" y="430" type="line" smooth="yes"/>
      <point x="451" y="370"/>
      <point x="442" y="364"/>
      <point x="355" y="364" type="curve" smooth="yes"/>
      <point x="144" y="364" type="line"/>
      <point x="144" y="184" type="line"/>
      <point x="285" y="184" type="line" smooth="yes"/>
      <point x="479" y="184"/>
      <point x="533" y="239"/>
      <point x="533" y="433" type="curve" smooth="yes"/>
      <point x="533" y="439" type="line" smooth="yes"/>
      <point x="533" y="633"/>
      <point x="479" y="688"/>
      <point x="285" y="688" type="curve" smooth="yes"/>
      <point x="78" y="688" type="line"/>
    </contour>
  </outline>
</glyph>
<glyph name="R" format="2">
  <advance width="604"/>
  <unicode hex="0052"/>
  <anchor x="302" y="0" name="bottom"/>
  <anchor x="302" y="688" name="top"/>
  <outline>
    <contour>
      <point x="78" y="0" type="line"/>
      <point x="160" y="0" type="line"/>
      <point x="160" y="541" type="line"/>
      <point x="123" y="508" type="line"/>
      <point x="365" y="508" type="line" smooth="yes"/>
      <point x="452" y="508"/>
      <point x="461" y="502"/>
      <point x="461" y="447" type="curve" smooth="yes"/>
      <point x="461" y="435" type="line" smooth="yes"/>
      <point x="461" y="378"/>
      <point x="452" y="374"/>
      <point x="365" y="374" type="curve" smooth="yes"/>
      <point x="144" y="374" type="line"/>
      <point x="144" y="194" type="line"/>
      <point x="295" y="194" type="line" smooth="yes"/>
      <point x="489" y="194"/>
      <point x="543" y="248"/>
      <point x="543" y="438" type="curve" smooth="yes"/>
      <point x="543" y="444" type="line" smooth="yes"/>
      <point x="543" y="634"/>
      <point x="489" y="688"/>
      <point x="295" y="688" type="curve" smooth="yes"/>
      <point x="78" y="688" type="line"/>
    </contour>
    <contour>
      <point x="464" y="0" type="line"/>
      <point x="553" y="0" type="line"/>
      <point x="448" y="259" type="line"/>
      <point x="362" y="259" type="line"/>
    </contour>
  </outline>
</glyph>
<glyph name="S" format="2">
  <advance width="604"/>
  <unicode hex="0053"/>
  <anchor x="302" y="0" name="bottom"/>
  <anchor x="302" y="688" name="top"/>
  <outline>
    <contour>
      <point x="307" y="-8" type="curve" smooth="yes"/>
      <point x="492" y="-8"/>
      <point x="549" y="45"/>
      <point x="549" y="218" type="curve" smooth="yes"/>
      <point x="549" y="346"/>
      <point x="513" y="392"/>
      <point x="402" y="405" type="curve" smooth="yes"/>
      <point x="220" y="425" type="line" smooth="yes"/>
      <point x="151" y="433"/>
      <point x="137" y="441"/>
      <point x="137" y="471" type="curve" smooth="yes"/>
      <point x="137" y="509"/>
      <point x="162" y="516"/>
      <point x="293" y="516" type="curve" smooth="yes"/>
      <point x="358" y="516"/>
      <point x="448" y="509"/>
      <point x="521" y="499" type="curve"/>
      <point x="521" y="677" type="line"/>
      <point x="442" y="688"/>
      <point x="353" y="696"/>
      <point x="297" y="696" type="curve" smooth="yes"/>
      <point x="113" y="696"/>
      <point x="55" y="643"/>
      <point x="55" y="476" type="curve" smooth="yes"/>
      <point x="55" y="352"/>
      <point x="93" y="302"/>
      <point x="200" y="289" type="curve" smooth="yes"/>
      <point x="382" y="269" type="line" smooth="yes"/>
      <point x="455" y="261"/>
      <point x="467" y="254"/>
      <point x="467" y="221" type="curve" smooth="yes"/>
      <point x="467" y="180"/>
      <point x="441" y="172"/>
      <point x="309" y="172" type="curve" smooth="yes"/>
      <point x="238" y="172"/>
      <point x="140" y="179"/>
      <point x="61" y="189" type="curve"/>
      <point x="61" y="11" type="line"/>
      <point x="149" y="-1"/>
      <point x="246" y="-8"/>
    </contour>
  </outline>
</glyph>
<glyph name="T" format="2">
  <advance width="554"/>
  <unicode hex="0054"/>
  <anchor x="277" y="0" name="bottom"/>
  <anchor x="277" y="344" name="center"/>
  <anchor x="277" y="688" name="top"/>
  <outline>
    <contour>
      <point x="236" y="0" type="line"/>
      <point x="318" y="0" type="line"/>
      <point x="318" y="585" type="line"/>
      <point x="283" y="508" type="line"/>
      <point x="546" y="508" type="line"/>
      <point x="546" y="688" type="line"/>
      <point x="8" y="688" type="line"/>
      <point x="8" y="508" type="line"/>
      <point x="271" y="508" type="line"/>
      <point x="236" y="585" type="line"/>
    </contour>
  </outline>
</glyph>
<glyph name="U" format="2">
  <advance width="810"/>
  <unicode hex="0055"/>
  <anchor x="405" y="0" name="bottom"/>
  <anchor x="729" y="10" name="ogonek"/>
  <anchor x="405" y="688" name="top"/>
  <anchor x="790" y="688" name="topright"/>
  <outline>
    <contour>
      <point x="405" y="-8" type="curve" smooth="yes"/>
      <point x="657" y="-8"/>
      <point x="736" y="91"/>
      <point x="736" y="403" type="curve" smooth="yes"/>
      <point x="736" y="688" type="line"/>
      <point x="506" y="688" type="line"/>
      <point x="506" y="323" type="line" smooth="yes"/>
      <point x="506" y="192"/>
      <point x="483" y="172"/>
      <point x="331" y="172" type="curve" smooth="yes"/>
      <point x="179" y="172"/>
      <point x="156" y="203"/>
      <point x="156" y="403" type="curve" smooth="yes"/>
      <point x="156" y="688" type="line"/>
      <point x="74" y="688" type="line"/>
      <point x="74" y="432" type="line" smooth="yes"/>
      <point x="74" y="79"/>
      <point x="140" y="-8"/>
    </contour>
  </outline>
</glyph>
<glyph name="W" format="2">
  <advance width="888"/>
  <unicode hex="0057"/>
  <outline>
    <contour>
      <point x="137" y="0" type="line"/>
      <point x="356" y="0" type="line"/>
      <point x="435" y="490" type="line"/>
      <point x="532" y="0" type="line"/>
      <point x="751" y="0" type="line"/>
      <point x="880" y="688" type="line"/>
      <point x="658" y="688" type="line"/>
      <point x="571" y="223" type="line"/>
      <point x="476" y="688" type="line"/>
      <point x="272" y="688" type="line"/>
      <point x="186" y="173" type="line"/>
      <point x="90" y="688" type="line"/>
      <point x="8" y="688" type="line"/>
    </contour>
  </outline>
</glyph>
<glyph name="X" format="2">
  <advance width="689"/>
  <unicode hex="0058"/>
  <anchor x="284" y="0" name="bottom"/>
  <anchor x="284" y="510" name="top"/>
  <outline>
    <contour>
      <point x="567" y="0" type="line"/>
      <point x="673" y="0" type="line"/>
      <point x="132" y="688" type="line"/>
      <point x="26" y="688" type="line"/>
    </contour>
    <contour>
      <point x="16" y="0" type="line"/>
      <point x="276" y="0" type="line"/>
      <point x="663" y="688" type="line"/>
      <point x="403" y="688" type="line"/>
    </contour>
  </outline>
</glyph>
<glyph name="Y" format="2">
  <advance width="700"/>
  <unicode hex="0059"/>
  <anchor x="249" y="0" name="bottom"/>
  <anchor x="249" y="688" name="top"/>
  <anchor x="-44" y="688" name="topleft"/>
  <outline>
    <contour>
      <point x="309" y="0" type="line"/>
      <point x="391" y="0" type="line"/>
      <point x="391" y="300" type="line"/>
      <point x="366" y="231" type="line"/>
      <point x="692" y="688" type="line"/>
      <point x="431" y="688" type="line"/>
      <point x="271" y="451" type="line"/>
      <point x="106" y="688" type="line"/>
      <point x="8" y="688" type="line"/>
      <point x="334" y="231" type="line"/>
      <point x="309" y="300" type="line"/>
    </contour>
  </outline>
</glyph>
<glyph name="Z" format="2">
  <advance width="679"/>
  <unicode hex="005A"/>
  <anchor x="524" y="0" name="bottom"/>
  <anchor x="524" y="344" name="center"/>
  <anchor x="524" y="688" name="top"/>
  <outline>
    <contour>
      <point x="39" y="0" type="line"/>
      <point x="640" y="0" type="line"/>
      <point x="640" y="74" type="line"/>
      <point x="300" y="74" type="line"/>
      <point x="635" y="622" type="line"/>
      <point x="635" y="688" type="line"/>
      <point x="49" y="688" type="line"/>
      <point x="49" y="614" type="line"/>
      <point x="369" y="614" type="line"/>
      <point x="39" y="66" type="line"/>
    </contour>
  </outline>
</glyph>
<glyph name="a" format="2">
  <advance width="552"/>
  <unicode hex="0061"/>
  <anchor x="280" y="0" name="bottom"/>
  <anchor x="514" y="10" name="ogonek"/>
  <anchor x="280" y="510" name="top"/>
  <outline>
    <contour>
      <point x="223" y="-8" type="curve" smooth="yes"/>
      <point x="318" y="-8"/>
      <point x="371" y="17"/>
      <point x="395" y="73" type="curve"/>
      <point x="399" y="73" type="line"/>
      <point x="408" y="0" type="line"/>
      <point x="478" y="0" type="line"/>
      <point x="478" y="259" type="line" smooth="yes"/>
      <point x="478" y="469"/>
      <point x="439" y="518"/>
      <point x="272" y="518" type="curve" smooth="yes"/>
      <point x="205" y="518"/>
      <point x="145" y="513"/>
      <point x="76" y="503" type="curve"/>
      <point x="76" y="345" type="line"/>
      <point x="136" y="354"/>
      <point x="198" y="358"/>
      <point x="272" y="358" type="curve" smooth="yes"/>
      <point x="388" y="358"/>
      <point x="396" y="352"/>
      <point x="396" y="268" type="curve" smooth="yes"/>
      <point x="396" y="248" type="line" smooth="yes"/>
      <point x="396" y="170"/>
      <point x="369" y="152"/>
      <point x="245" y="152" type="curve" smooth="yes"/>
      <point x="147" y="152"/>
      <point x="132" y="158"/>
      <point x="132" y="184" type="curve" smooth="yes"/>
      <point x="132" y="209"/>
      <point x="154" y="215"/>
      <point x="245" y="215" type="curve" smooth="yes"/>
      <point x="408" y="215" type="line"/>
      <point x="408" y="305" type="line"/>
      <point x="228" y="305" type="line" smooth="yes"/>
      <point x="97" y="305"/>
      <point x="50" y="268"/>
      <point x="50" y="164" type="curve" smooth="yes"/>
      <point x="50" y="40"/>
      <point x="98" y="-8"/>
    </contour>
  </outline>
</glyph>
<glyph name="b" format="2">
  <advance width="583"/>
  <unicode hex="0062"/>
  <anchor x="288" y="0" name="bottom"/>
  <anchor x="133" y="594" name="center"/>
  <anchor x="288" y="510" name="top"/>
  <outline>
    <contour>
      <point x="347" y="-8" type="curve" smooth="yes"/>
      <point x="494" y="-8"/>
      <point x="528" y="42"/>
      <point x="528" y="251" type="curve" smooth="yes"/>
      <point x="528" y="259" type="line" smooth="yes"/>
      <point x="528" y="468"/>
      <point x="494" y="518"/>
      <point x="347" y="518" type="curve" smooth="yes"/>
      <point x="246" y="518"/>
      <point x="190" y="496"/>
      <point x="165" y="447" type="curve"/>
      <point x="160" y="447" type="line"/>
      <point x="160" y="743" type="line"/>
      <point x="78" y="743" type="line"/>
      <point x="78" y="0" type="line"/>
      <point x="147" y="0" type="line"/>
      <point x="160" y="63" type="line"/>
      <point x="165" y="63" type="line"/>
      <point x="190" y="14"/>
      <point x="246" y="-8"/>
    </contour>
    <contour>
      <point x="322" y="172" type="curve" smooth="yes"/>
      <point x="187" y="172"/>
      <point x="160" y="187"/>
      <point x="160" y="251" type="curve" smooth="yes"/>
      <point x="160" y="259" type="line" smooth="yes"/>
      <point x="160" y="323"/>
      <point x="187" y="338"/>
      <point x="322" y="338" type="curve" smooth="yes"/>
      <point x="431" y="338"/>
      <point x="446" y="328"/>
      <point x="446" y="272" type="curve" smooth="yes"/>
      <point x="446" y="238" type="line" smooth="yes"/>
      <point x="446" y="182"/>
      <point x="431" y="172"/>
    </contour>
  </outline>
</glyph>
<glyph name="c" format="2">
  <advance width="484"/>
  <unicode hex="0063"/>
  <anchor x="221" y="0" name="bottom"/>
  <anchor x="221" y="510" name="top"/>
  <outline>
    <contour>
      <point x="292" y="-8" type="curve" smooth="yes"/>
      <point x="347" y="-8"/>
      <point x="412" y="-2"/>
      <point x="451" y="7" type="curve"/>
      <point x="451" y="185" type="line"/>
      <point x="411" y="178"/>
      <point x="341" y="172"/>
      <point x="287" y="172" type="curve" smooth="yes"/>
      <point x="147" y="172"/>
      <point x="137" y="178"/>
      <point x="137" y="244" type="curve" smooth="yes"/>
      <point x="137" y="266" type="line" smooth="yes"/>
      <point x="137" y="332"/>
      <point x="147" y="338"/>
      <point x="287" y="338" type="curve" smooth="yes"/>
      <point x="339" y="338"/>
      <point x="407" y="333"/>
      <point x="446" y="325" type="curve"/>
      <point x="446" y="503" type="line"/>
      <point x="408" y="512"/>
      <point x="347" y="518"/>
      <point x="292" y="518" type="curve" smooth="yes"/>
      <point x="90" y="518"/>
      <point x="55" y="479"/>
      <point x="55" y="259" type="curve" smooth="yes"/>
      <point x="55" y="251" type="line" smooth="yes"/>
      <point x="55" y="31"/>
      <point x="90" y="-8"/>
    </contour>
  </outline>
</glyph>
<glyph name="e" format="2">
  <advance width="538"/>
  <unicode hex="0065"/>
  <anchor x="268" y="0" name="bottom"/>
  <anchor x="494" y="10" name="ogonek"/>
  <anchor x="268" y="510" name="top"/>
  <outline>
    <contour>
      <point x="274" y="-8" type="curve" smooth="yes"/>
      <point x="345" y="-8"/>
      <point x="429" y="0"/>
      <point x="475" y="12" type="curve"/>
      <point x="475" y="170" type="line"/>
      <point x="421" y="159"/>
      <point x="338" y="152"/>
      <point x="274" y="152" type="curve" smooth="yes"/>
      <point x="146" y="152"/>
      <point x="137" y="158"/>
      <point x="137" y="241" type="curve" smooth="yes"/>
      <point x="137" y="269" type="line" smooth="yes"/>
      <point x="137" y="351"/>
      <point x="146" y="358"/>
      <point x="274" y="358" type="curve" smooth="yes"/>
      <point x="397" y="358"/>
      <point x="406" y="351"/>
      <point x="406" y="269" type="curve" smooth="yes"/>
      <point x="406" y="252" type="line"/>
      <point x="439" y="296" type="line"/>
      <point x="95" y="296" type="line"/>
      <point x="95" y="206" type="line"/>
      <point x="488" y="206" type="line"/>
      <point x="488" y="259" type="line" smooth="yes"/>
      <point x="488" y="468"/>
      <point x="447" y="518"/>
      <point x="274" y="518" type="curve" smooth="yes"/>
      <point x="97" y="518"/>
      <point x="55" y="468"/>
      <point x="55" y="259" type="curve" smooth="yes"/>
      <point x="55" y="251" type="line" smooth="yes"/>
      <point x="55" y="41"/>
      <point x="97" y="-8"/>
    </contour>
  </outline>
</glyph>
<glyph name="f" format="2">
  <advance width="373"/>
  <unicode hex="0066"/>
  <anchor x="194" y="0" name="bottom"/>
  <anchor x="194" y="743" name="top"/>
  <outline>
    <contour>
      <point x="137" y="0" type="line"/>
      <point x="219" y="0" type="line"/>
      <point x="219" y="468" type="line" smooth="yes"/>
      <point x="219" y="548"/>
      <point x="243" y="563"/>
      <point x="369" y="563" type="curve"/>
      <point x="369" y="743" type="line"/>
      <point x="188" y="743"/>
      <point x="137" y="682"/>
      <point x="137" y="461" type="curve" smooth="yes"/>
    </contour>
    <contour>
      <point x="16" y="330" type="line"/>
      <point x="154" y="330" type="line"/>
      <point x="154" y="510" type="line"/>
      <point x="16" y="510" type="line"/>
    </contour>
    <contour>
      <point x="203" y="330" type="line"/>
      <point x="369" y="330" type="line"/>
      <point x="368" y="510" type="line"/>
      <point x="203" y="510" type="line"/>
    </contour>
  </outline>
</glyph>
<glyph name="g" format="2">
  <advance width="583"/>
  <unicode hex="0067"/>
  <anchor x="254" y="-200" name="bottom"/>
  <anchor x="450" y="-84" name="center"/>
  <anchor x="254" y="510" name="top"/>
  <outline>
    <contour>
      <point x="299" y="-238" type="curve" smooth="yes"/>
      <point x="466" y="-238"/>
      <point x="505" y="-189"/>
      <point x="505" y="21" type="curve" smooth="yes"/>
      <point x="505" y="510" type="line"/>
      <point x="436" y="510" type="line"/>
      <point x="423" y="447" type="line"/>
      <point x="418" y="447" type="line"/>
      <point x="393" y="496"/>
      <point x="337" y="518"/>
      <point x="236" y="518" type="curve" smooth="yes"/>
      <point x="89" y="518"/>
      <point x="55" y="469"/>
      <point x="55" y="259" type="curve" smooth="yes"/>
      <point x="55" y="251" type="line" smooth="yes"/>
      <point x="55" y="41"/>
      <point x="89" y="-8"/>
      <point x="236" y="-8" type="curve" smooth="yes"/>
      <point x="336" y="-8"/>
      <point x="392" y="14"/>
      <point x="417" y="63" type="curve"/>
      <point x="422" y="63" type="line"/>
      <point x="423" y="12" type="line" smooth="yes"/>
      <point x="423" y="-72"/>
      <point x="415" y="-78"/>
      <point x="299" y="-78" type="curve" smooth="yes"/>
      <point x="225" y="-78"/>
      <point x="163" y="-74"/>
      <point x="103" y="-65" type="curve"/>
      <point x="103" y="-223" type="line"/>
      <point x="172" y="-233"/>
      <point x="232" y="-238"/>
    </contour>
    <contour>
      <point x="261" y="172" type="curve" smooth="yes"/>
      <point x="154" y="172"/>
      <point x="137" y="181"/>
      <point x="137" y="238" type="curve" smooth="yes"/>
      <point x="137" y="272" type="line" smooth="yes"/>
      <point x="137" y="329"/>
      <point x="154" y="338"/>
      <point x="261" y="338" type="curve" smooth="yes"/>
      <point x="395" y="338"/>
      <point x="423" y="325"/>
      <point x="423" y="259" type="curve" smooth="yes"/>
      <point x="423" y="251" type="line" smooth="yes"/>
      <point x="423" y="185"/>
      <point x="395" y="172"/>
    </contour>
  </outline>
</glyph>
<glyph name="h" format="2">
  <advance width="580"/>
  <unicode hex="0068"/>
  <anchor x="290" y="0" name="bottom"/>
  <anchor x="290" y="510" name="top"/>
  <outline>
    <contour>
      <point x="78" y="0" type="line"/>
      <point x="160" y="0" type="line"/>
      <point x="160" y="150" type="line" smooth="yes"/>
      <point x="160" y="313"/>
      <point x="180" y="338"/>
      <point x="311" y="338" type="curve" smooth="yes"/>
      <point x="409" y="338"/>
      <point x="424" y="318"/>
      <point x="424" y="189" type="curve" smooth="yes"/>
      <point x="424" y="0" type="line"/>
      <point x="506" y="0" type="line"/>
      <point x="506" y="201" type="line" smooth="yes"/>
      <point x="506" y="429"/>
      <point x="458" y="518"/>
      <point x="333" y="518" type="curve" smooth="yes"/>
      <point x="237" y="518"/>
      <point x="184" y="493"/>
      <point x="160" y="437" type="curve"/>
      <point x="160" y="743" type="line"/>
      <point x="78" y="743" type="line"/>
    </contour>
  </outline>
</glyph>
<glyph name="j" format="2">
  <advance width="238"/>
  <unicode hex="006A"/>
  <anchor x="119" y="-200" name="bottom"/>
  <anchor x="119" y="716" name="top"/>
  <outline>
    <contour>
      <point x="160" y="510" type="line"/>
      <point x="78" y="510" type="line"/>
      <point x="78" y="75" type="line" smooth="yes"/>
      <point x="78" y="-5"/>
      <point x="57" y="-20"/>
      <point x="-54" y="-20" type="curve"/>
      <point x="-54" y="-200" type="line"/>
      <point x="113" y="-200"/>
      <point x="160" y="-139"/>
      <point x="160" y="82" type="curve" smooth="yes"/>
    </contour>
    <contour>
      <point x="75" y="628" type="line"/>
      <point x="163" y="628" type="line"/>
      <point x="163" y="716" type="line"/>
      <point x="75" y="716" type="line"/>
    </contour>
  </outline>
</glyph>
<glyph name="k" format="2">
  <advance width="612"/>
  <unicode hex="006B"/>
  <anchor x="342" y="0" name="bottom"/>
  <anchor x="342" y="510" name="top"/>
  <outline>
    <contour>
      <point x="160" y="170" type="line"/>
      <point x="390" y="170" type="line"/>
      <point x="504" y="0" type="line"/>
      <point x="600" y="0" type="line"/>
      <point x="426" y="260" type="line"/>
      <point x="592" y="510" type="line"/>
      <point x="328" y="510" type="line"/>
      <point x="222" y="350" type="line"/>
      <point x="160" y="350" type="line"/>
    </contour>
    <contour>
      <point x="78" y="0" type="line"/>
      <point x="160" y="0" type="line"/>
      <point x="160" y="743" type="line"/>
      <point x="78" y="743" type="line"/>
    </contour>
  </outline>
</glyph>
<glyph name="l" format="2">
  <advance width="238"/>
  <unicode hex="006C"/>
  <anchor x="119" y="0" name="bottom"/>
  <anchor x="119" y="372" name="center"/>
  <anchor x="119" y="743" name="top"/>
  <anchor x="160" y="743" name="topright"/>
  <outline>
    <contour>
      <point x="78" y="0" type="line"/>
      <point x="160" y="0" type="line"/>
      <point x="160" y="743" type="line"/>
      <point x="78" y="743" type="line"/>
    </contour>
  </outline>
</glyph>
<glyph name="m" format="2">
  <advance width="926"/>
  <unicode hex="006D"/>
  <anchor x="290" y="0" name="bottom"/>
  <anchor x="290" y="510" name="top"/>
  <outline>
    <contour>
      <point x="78" y="0" type="line"/>
      <point x="160" y="0" type="line"/>
      <point x="160" y="136" type="line" smooth="yes"/>
      <point x="160" y="301"/>
      <point x="187" y="338"/>
      <point x="311" y="338" type="curve" smooth="yes"/>
      <point x="407" y="338"/>
      <point x="424" y="312"/>
      <point x="424" y="177" type="curve" smooth="yes"/>
      <point x="424" y="0" type="line"/>
      <point x="506" y="0" type="line"/>
      <point x="506" y="136" type="line" smooth="yes"/>
      <point x="506" y="301"/>
      <point x="533" y="338"/>
      <point x="657" y="338" type="curve" smooth="yes"/>
      <point x="753" y="338"/>
      <point x="770" y="312"/>
      <point x="770" y="177" type="curve" smooth="yes"/>
      <point x="770" y="0" type="line"/>
      <point x="852" y="0" type="line"/>
      <point x="852" y="189" type="line" smooth="yes"/>
      <point x="852" y="467"/>
      <point x="826" y="518"/>
      <point x="679" y="518" type="curve" smooth="yes"/>
      <point x="575" y="518"/>
      <point x="518" y="492"/>
      <point x="486" y="437" type="curve"/>
      <point x="482" y="437" type="line"/>
      <point x="459" y="502"/>
      <point x="416" y="518"/>
      <point x="333" y="518" type="curve" smooth="yes"/>
      <point x="238" y="518"/>
      <point x="185" y="493"/>
      <point x="161" y="437" type="curve"/>
      <point x="157" y="437" type="line"/>
      <point x="148" y="510" type="line"/>
      <point x="78" y="510" type="line"/>
    </contour>
  </outline>
</glyph>
<glyph name="o" format="2">
  <advance width="558"/>
  <unicode hex="006F"/>
  <anchor x="279" y="0" name="bottom"/>
  <anchor x="279" y="255" name="center"/>
  <anchor x="514" y="10" name="ogonek"/>
  <anchor x="279" y="510" name="top"/>
  <anchor x="553" y="510" name="topright"/>
  <outline>
    <contour>
      <point x="279" y="-8" type="curve" smooth="yes"/>
      <point x="460" y="-8"/>
      <point x="503" y="42"/>
      <point x="503" y="251" type="curve" smooth="yes"/>
      <point x="503" y="259" type="line" smooth="yes"/>
      <point x="503" y="468"/>
      <point x="460" y="518"/>
      <point x="279" y="518" type="curve" smooth="yes"/>
      <point x="98" y="518"/>
      <point x="55" y="468"/>
      <point x="55" y="259" type="curve" smooth="yes"/>
      <point x="55" y="251" type="line" smooth="yes"/>
      <point x="55" y="42"/>
      <point x="98" y="-8"/>
    </contour>
    <contour>
      <point x="279" y="172" type="curve" smooth="yes"/>
      <point x="147" y="172"/>
      <point x="137" y="177"/>
      <point x="137" y="246" type="curve" smooth="yes"/>
      <point x="137" y="262" type="line" smooth="yes"/>
      <point x="137" y="330"/>
      <point x="147" y="338"/>
      <point x="279" y="338" type="curve" smooth="yes"/>
      <point x="411" y="338"/>
      <point x="421" y="330"/>
      <point x="421" y="262" type="curve" smooth="yes"/>
      <point x="421" y="246" type="line" smooth="yes"/>
      <point x="421" y="177"/>
      <point x="411" y="172"/>
    </contour>
  </outline>
</glyph>
<glyph name="p" format="2">
  <advance width="583"/>
  <unicode hex="0070"/>
  <anchor x="299" y="0" name="bottom"/>
  <anchor x="133" y="-84" name="center"/>
  <anchor x="299" y="510" name="top"/>
  <outline>
    <contour>
      <point x="78" y="-233" type="line"/>
      <point x="160" y="-233" type="line"/>
      <point x="160" y="63" type="line"/>
      <point x="165" y="63" type="line"/>
      <point x="190" y="14"/>
      <point x="246" y="-8"/>
      <point x="347" y="-8" type="curve" smooth="yes"/>
      <point x="494" y="-8"/>
      <point x="528" y="42"/>
      <point x="528" y="251" type="curve" smooth="yes"/>
      <point x="528" y="259" type="line" smooth="yes"/>
      <point x="528" y="468"/>
      <point x="494" y="518"/>
      <point x="347" y="518" type="curve" smooth="yes"/>
      <point x="246" y="518"/>
      <point x="190" y="496"/>
      <point x="165" y="447" type="curve"/>
      <point x="160" y="447" type="line"/>
      <point x="147" y="510" type="line"/>
      <point x="78" y="510" type="line"/>
    </contour>
    <contour>
      <point x="322" y="172" type="curve" smooth="yes"/>
      <point x="187" y="172"/>
      <point x="160" y="187"/>
      <point x="160" y="251" type="curve" smooth="yes"/>
      <point x="160" y="259" type="line" smooth="yes"/>
      <point x="160" y="323"/>
      <point x="187" y="338"/>
      <point x="322" y="338" type="curve" smooth="yes"/>
      <point x="431" y="338"/>
      <point x="446" y="328"/>
      <point x="446" y="272" type="curve" smooth="yes"/>
      <point x="446" y="238" type="line" smooth="yes"/>
      <point x="446" y="182"/>
      <point x="431" y="172"/>
    </contour>
  </outline>
</glyph>
<glyph name="q" format="2">
  <advance width="583"/>
  <unicode hex="0071"/>
  <anchor x="310" y="0" name="bottom"/>
  <anchor x="450" y="-84" name="center"/>
  <anchor x="310" y="510" name="top"/>
  <outline>
    <contour>
      <point x="423" y="-233" type="line"/>
      <point x="505" y="-233" type="line"/>
      <point x="505" y="510" type="line"/>
      <point x="436" y="510" type="line"/>
      <point x="423" y="447" type="line"/>
      <point x="418" y="447" type="line"/>
      <point x="393" y="496"/>
      <point x="337" y="518"/>
      <point x="236" y="518" type="curve" smooth="yes"/>
      <point x="89" y="518"/>
      <point x="55" y="468"/>
      <point x="55" y="259" type="curve" smooth="yes"/>
      <point x="55" y="251" type="line" smooth="yes"/>
      <point x="55" y="42"/>
      <point x="89" y="-8"/>
      <point x="236" y="-8" type="curve" smooth="yes"/>
      <point x="337" y="-8"/>
      <point x="393" y="14"/>
      <point x="418" y="63" type="curve"/>
      <point x="423" y="63" type="line"/>
    </contour>
    <contour>
      <point x="261" y="172" type="curve" smooth="yes"/>
      <point x="152" y="172"/>
      <point x="137" y="182"/>
      <point x="137" y="238" type="curve" smooth="yes"/>
      <point x="137" y="272" type="line" smooth="yes"/>
      <point x="137" y="328"/>
      <point x="152" y="338"/>
      <point x="261" y="338" type="curve" smooth="yes"/>
      <point x="396" y="338"/>
      <point x="423" y="323"/>
      <point x="423" y="259" type="curve" smooth="yes"/>
      <point x="423" y="251" type="line" smooth="yes"/>
      <point x="423" y="187"/>
      <point x="396" y="172"/>
    </contour>
  </outline>
</glyph>
<glyph name="r" format="2">
  <advance width="370"/>
  <unicode hex="0072"/>
  <anchor x="185" y="0" name="bottom"/>
  <anchor x="185" y="510" name="top"/>
  <outline>
    <contour>
      <point x="78" y="0" type="line"/>
      <point x="160" y="0" type="line"/>
      <point x="160" y="136" type="line" smooth="yes"/>
      <point x="160" y="301"/>
      <point x="187" y="338"/>
      <point x="311" y="338" type="curve" smooth="yes"/>
      <point x="348" y="338" type="line"/>
      <point x="348" y="518" type="line"/>
      <point x="244" y="518"/>
      <point x="188" y="493"/>
      <point x="161" y="437" type="curve"/>
      <point x="157" y="437" type="line"/>
      <point x="148" y="510" type="line"/>
      <point x="78" y="510" type="line"/>
    </contour>
  </outline>
</glyph>
<glyph name="s" format="2">
  <advance width="473"/>
  <unicode hex="0073"/>
  <anchor x="237" y="0" name="bottom"/>
  <anchor x="237" y="510" name="top"/>
  <outline>
    <contour>
      <point x="224" y="-8" type="curve" smooth="yes"/>
      <point x="378" y="-8"/>
      <point x="422" y="26"/>
      <point x="422" y="145" type="curve" smooth="yes"/>
      <point x="422" y="249"/>
      <point x="393" y="286"/>
      <point x="308" y="295" type="curve" smooth="yes"/>
      <point x="157" y="309" type="line" smooth="yes"/>
      <point x="139" y="311"/>
      <point x="133" y="318"/>
      <point x="133" y="332" type="curve" smooth="yes"/>
      <point x="133" y="352"/>
      <point x="144" y="358"/>
      <point x="183" y="358" type="curve" smooth="yes"/>
      <point x="265" y="358"/>
      <point x="362" y="353"/>
      <point x="400" y="346" type="curve"/>
      <point x="400" y="508" type="line"/>
      <point x="367" y="514"/>
      <point x="313" y="518"/>
      <point x="266" y="518" type="curve" smooth="yes"/>
      <point x="97" y="518"/>
      <point x="51" y="485"/>
      <point x="51" y="367" type="curve" smooth="yes"/>
      <point x="51" y="266"/>
      <point x="81" y="227"/>
      <point x="163" y="218" type="curve" smooth="yes"/>
      <point x="314" y="204" type="line" smooth="yes"/>
      <point x="333" y="202"/>
      <point x="340" y="196"/>
      <point x="340" y="178" type="curve" smooth="yes"/>
      <point x="340" y="158"/>
      <point x="329" y="152"/>
      <point x="290" y="152" type="curve" smooth="yes"/>
      <point x="202" y="152"/>
      <point x="98" y="157"/>
      <point x="56" y="164" type="curve"/>
      <point x="56" y="2" type="line"/>
      <point x="95" y="-4"/>
      <point x="165" y="-8"/>
    </contour>
  </outline>
</glyph>
<glyph name="t" format="2">
  <advance width="373"/>
  <unicode hex="0074"/>
  <anchor x="194" y="0" name="bottom"/>
  <anchor x="194" y="743" name="top"/>
  <outline>
    <contour>
      <point x="137" y="0" type="line"/>
      <point x="219" y="0" type="line"/>
      <point x="219" y="688" type="line"/>
      <point x="137" y="688" type="line"/>
    </contour>
    <contour>
      <point x="16" y="330" type="line"/>
      <point x="154" y="330" type="line"/>
      <point x="154" y="510" type="line"/>
      <point x="16" y="510" type="line"/>
    </contour>
    <contour>
      <point x="203" y="330" type="line"/>
      <point x="369" y="330" type="line"/>
      <point x="368" y="510" type="line"/>
      <point x="203" y="510" type="line"/>
    </contour>
  </outline>
</glyph>
<glyph name="u" format="2">
  <advance width="580"/>
  <unicode hex="0075"/>
  <anchor x="290" y="0" name="bottom"/>
  <anchor x="522" y="10" name="ogonek"/>
  <anchor x="290" y="510" name="top"/>
  <anchor x="560" y="510" name="topright"/>
  <outline>
    <contour>
      <point x="502" y="510" type="line"/>
      <point x="420" y="510" type="line"/>
      <point x="420" y="360" type="line" smooth="yes"/>
      <point x="420" y="197"/>
      <point x="400" y="172"/>
      <point x="269" y="172" type="curve" smooth="yes"/>
      <point x="171" y="172"/>
      <point x="156" y="192"/>
      <point x="156" y="321" type="curve" smooth="yes"/>
      <point x="156" y="510" type="line"/>
      <point x="74" y="510" type="line"/>
      <point x="74" y="309" type="line" smooth="yes"/>
      <point x="74" y="81"/>
      <point x="122" y="-8"/>
      <point x="247" y="-8" type="curve" smooth="yes"/>
      <point x="342" y="-8"/>
      <point x="395" y="17"/>
      <point x="419" y="73" type="curve"/>
      <point x="423" y="73" type="line"/>
      <point x="432" y="0" type="line"/>
      <point x="502" y="0" type="line"/>
    </contour>
  </outline>
</glyph>
<glyph name="v" format="2">
  <advance width="640"/>
  <unicode hex="0076"/>
  <anchor x="422" y="0" name="bottom"/>
  <anchor x="422" y="510" name="top"/>
  <outline>
    <contour>
      <point x="212" y="0" type="line"/>
      <point x="431" y="0" type="line"/>
      <point x="620" y="510" type="line"/>
      <point x="387" y="510" type="line"/>
      <point x="255" y="105" type="line"/>
      <point x="251" y="105" type="line"/>
      <point x="105" y="510" type="line"/>
      <point x="20" y="510" type="line"/>
    </contour>
  </outline>
</glyph>
<glyph name="w" format="2">
  <advance width="829"/>
  <unicode hex="0077"/>
  <anchor x="-301" y="0" name="bottom"/>
  <anchor x="-301" y="510" name="top"/>
  <outline>
    <contour>
      <point x="120" y="0" type="line"/>
      <point x="333" y="0" type="line"/>
      <point x="406" y="380" type="line"/>
      <point x="495" y="0" type="line"/>
      <point x="708" y="0" type="line"/>
      <point x="809" y="510" type="line"/>
      <point x="595" y="510" type="line"/>
      <point x="531" y="147" type="line"/>
      <point x="527" y="147" type="line"/>
      <point x="442" y="510" type="line"/>
      <point x="242" y="510" type="line"/>
      <point x="177" y="147" type="line"/>
      <point x="173" y="147" type="line"/>
      <point x="99" y="510" type="line"/>
      <point x="20" y="510" type="line"/>
    </contour>
  </outline>
</glyph>
<glyph name="y" format="2">
  <advance width="581"/>
  <unicode hex="0079"/>
  <anchor x="280" y="0" name="bottom"/>
  <anchor x="280" y="510" name="top"/>
  <outline>
    <contour>
      <point x="295" y="-238" type="curve" smooth="yes"/>
      <point x="477" y="-238"/>
      <point x="503" y="-190"/>
      <point x="503" y="51" type="curve" smooth="yes"/>
      <point x="503" y="510" type="line"/>
      <point x="421" y="510" type="line"/>
      <point x="421" y="251" type="line" smooth="yes"/>
      <point x="421" y="185"/>
      <point x="405" y="172"/>
      <point x="271" y="172" type="curve" smooth="yes"/>
      <point x="164" y="172"/>
      <point x="156" y="181"/>
      <point x="156" y="238" type="curve" smooth="yes"/>
      <point x="156" y="510" type="line"/>
      <point x="74" y="510" type="line"/>
      <point x="74" y="251" type="line" smooth="yes"/>
      <point x="74" y="41"/>
      <point x="98" y="-8"/>
      <point x="245" y="-8" type="curve" smooth="yes"/>
      <point x="345" y="-8"/>
      <point x="390" y="14"/>
      <point x="415" y="63" type="curve"/>
      <point x="420" y="63" type="line"/>
      <point x="421" y="31" type="line" smooth="yes"/>
      <point x="421" y="-52"/>
      <point x="413" y="-58"/>
      <point x="293" y="-58" type="curve" smooth="yes"/>
      <point x="229" y="-58"/>
      <point x="151" y="-51"/>
      <point x="104" y="-40" type="curve"/>
      <point x="104" y="-218" type="line"/>
      <point x="148" y="-230"/>
      <point x="221" y="-238"/>
    </contour>
  </outline>
</glyph>
<glyph name="z" format="2">
  <advance width="574"/>
  <unicode hex="007A"/>
  <anchor x="319" y="0" name="bottom"/>
  <anchor x="313" y="255" name="center"/>
  <anchor x="319" y="510" name="top"/>
  <outline>
    <contour>
      <point x="20" y="0" type="line"/>
      <point x="554" y="0" type="line"/>
      <point x="554" y="70" type="line"/>
      <point x="276" y="70" type="line"/>
      <point x="276" y="74" type="line"/>
      <point x="550" y="447" type="line"/>
      <point x="550" y="510" type="line"/>
      <point x="32" y="510" type="line"/>
      <point x="32" y="440" type="line"/>
      <point x="296" y="440" type="line"/>
      <point x="296" y="436" type="line"/>
      <point x="20" y="63" type="line"/>
    </contour>
  </outline>
</glyph>
<glyph name="bar" format="2">
  <advance width="300"/>
  <unicode hex="007C"/>
  <outline>
    <contour>
      <point x="109" y="-161" type="line"/>
      <point x="191" y="-161" type="line"/>
      <point x="191" y="743" type="line"/>
      <point x="109" y="743" type="line"/>
    </contour>
  </outline>
</glyph>
<glyph name="macron" format="2">
  <advance width="288.91304"/>
  <unicode hex="00AF"/>
  <outline>
    <contour>
      <point x="0" y="627.717" type="line"/>
      <point x="288.913" y="627.717" type="line"/>
      <point x="288.913" y="684.804" type="line"/>
      <point x="0" y="684.804" type="line"/>
    </contour>
  </outline>
</glyph>
<glyph name="plusminus" format="2">
  <advance width="540"/>
  <unicode hex="00B1"/>
  <outline>
    <contour>
      <point x="236.152" y="184" type="line"/>
      <point x="302.391" y="184" type="line"/>
      <point x="302.391" y="351.152" type="line"/>
      <point x="470" y="351.152" type="line"/>
      <point x="470" y="417.391" type="line"/>
      <point x="302.391" y="417.391" type="line"/>
      <point x="302.391" y="584" type="line"/>
      <point x="236.152" y="584" type="line"/>
      <point x="236.152" y="417.391" type="line"/>
      <point x="70" y="417.391" type="line"/>
      <point x="70" y="351.152" type="line"/>
      <point x="236.152" y="351.152" type="line"/>
    </contour>
    <contour>
      <point x="70" y="0" type="line"/>
      <point x="470" y="0" type="line"/>
      <point x="470" y="66.239" type="line"/>
      <point x="70" y="66.239" type="line"/>
    </contour>
  </outline>
</glyph>
<glyph name="jdotless" format="2">
  <advance width="238"/>
  <unicode hex="0237"/>
  <anchor x="119" y="-200" name="bottom"/>
  <anchor x="119" y="510" name="top"/>
  <outline>
    <contour>
      <point x="160" y="510" type="line"/>
      <point x="78" y="510" type="line"/>
      <point x="78" y="75" type="line" smooth="yes"/>
      <point x="78" y="-5"/>
      <point x="57" y="-20"/>
      <point x="-54" y="-20" type="curve"/>
      <point x="-54" y="-200" type="line"/>
      <point x="113" y="-200"/>
      <point x="160" y="-139"/>
      <point x="160" y="82" type="curve" smooth="yes"/>
    </contour>
  </outline>
</glyph>
<glyph name="dieresisbelowcomb" format="2">
  <advance width="283.43478"/>
  <unicode hex="0324"/>
  <anchor x="141.217" y="0" name="_bottom"/>
  <anchor x="141.217" y="-144.022" name="bottom"/>
  <outline>
    <contour>
      <point x="0" y="-164.739" type="line"/>
      <point x="76.696" y="-164.739" type="line"/>
      <point x="76.696" y="-84.174" type="line"/>
      <point x="0" y="-84.174" type="line"/>
    </contour>
    <contour>
      <point x="206.739" y="-164.739" type="line"/>
      <point x="283.435" y="-164.739" type="line"/>
      <point x="283.435" y="-84.174" type="line"/>
      <point x="206.739" y="-84.174" type="line"/>
    </contour>
  </outline>
</glyph>
<glyph name="ogonekcomb" format="2">
  <advance width="134.95652"/>
  <unicode hex="0328"/>
  <anchor x="133.957" y="4" name="_ogonek"/>
  <outline>
    <contour>
      <point x="95.565" y="-196" type="curve" smooth="yes"/>
      <point x="109.457" y="-196"/>
      <point x="122.152" y="-195.457"/>
      <point x="134.957" y="-193.913" type="curve"/>
      <point x="134.957" y="-140.717" type="line"/>
      <point x="127.587" y="-142.261"/>
      <point x="121.957" y="-142.261"/>
      <point x="117.957" y="-142.261" type="curve" smooth="yes"/>
      <point x="81.87" y="-142.261"/>
      <point x="70.957" y="-124.978"/>
      <point x="70.957" y="-101.696" type="curve" smooth="yes"/>
      <point x="70.957" y="-65.587"/>
      <point x="107.5" y="-16.739"/>
      <point x="133.957" y="4" type="curve"/>
      <point x="75" y="14" type="line"/>
      <point x="31" y="-24.457"/>
      <point x="0" y="-75.652"/>
      <point x="0" y="-119.109" type="curve" smooth="yes"/>
      <point x="0" y="-161.739"/>
      <point x="21.543" y="-196"/>
    </contour>
  </outline>
</glyph>
<glyph name="pi" format="2">
  <advance width="590.73913"/>
  <unicode hex="03C0"/>
  <outline>
    <contour>
      <point x="86.413" y="0" type="line"/>
      <point x="167.609" y="0" type="line"/>
      <point x="167.609" y="441.043" type="line"/>
      <point x="423.13" y="441.043" type="line"/>
      <point x="423.13" y="0" type="line"/>
      <point x="503.783" y="0" type="line"/>
      <point x="503.783" y="510" type="line"/>
      <point x="86.413" y="510" type="line"/>
    </contour>
  </outline>
</glyph>
<glyph name="peso" format="2">
  <advance width="651.73913"/>
  <unicode hex="20B1"/>
  <outline>
    <contour>
      <point x="552.609" y="504" type="line"/>
      <point x="691.283" y="504" type="line"/>
      <point x="691.283" y="553.217" type="line"/>
      <point x="552.609" y="553.217" type="line"/>
    </contour>
    <contour>
      <point x="552.609" y="387.848" type="line"/>
      <point x="691.283" y="387.848" type="line"/>
      <point x="691.283" y="437.065" type="line"/>
      <point x="552.609" y="437.065" type="line"/>
    </contour>
    <contour>
      <point x="0" y="504" type="line"/>
      <point x="146.043" y="504" type="line"/>
      <point x="146.043" y="553.217" type="line"/>
      <point x="0" y="553.217" type="line"/>
    </contour>
    <contour>
      <point x="0" y="387.848" type="line"/>
      <point x="146.043" y="387.848" type="line"/>
      <point x="146.043" y="437.065" type="line"/>
      <point x="0" y="437.065" type="line"/>
    </contour>
    <component base="P"/>
  </outline>
</glyph>
<glyph name="trademark" format="2">
  <advance width="746.60869"/>
  <unicode hex="2122"/>
  <outline>
    <contour>
      <point x="339.935" y="385.543" type="line"/>
      <point x="383.13" y="385.543" type="line"/>
      <point x="383.13" y="611.435" type="line"/>
      <point x="387.13" y="611.435" type="line"/>
      <point x="486.283" y="385.543" type="line"/>
      <point x="516.326" y="385.543" type="line"/>
      <point x="615.478" y="612.348" type="line"/>
      <point x="619.478" y="612.348" type="line"/>
      <point x="619.478" y="385.543" type="line"/>
      <point x="663.674" y="385.543" type="line"/>
      <point x="663.674" y="688" type="line"/>
      <point x="606.065" y="688" type="line"/>
      <point x="505.348" y="458.87" type="line"/>
      <point x="500.261" y="458.87" type="line"/>
      <point x="397.543" y="688" type="line"/>
      <point x="339.935" y="688" type="line"/>
    </contour>
    <contour>
      <point x="142.891" y="385.543" type="line"/>
      <point x="189.261" y="385.543" type="line"/>
      <point x="189.261" y="645.804" type="line"/>
      <point x="287" y="645.804" type="line"/>
      <point x="287" y="688" type="line"/>
      <point x="46.609" y="688" type="line"/>
      <point x="46.609" y="645.804" type="line"/>
      <point x="142.891" y="645.804" type="line"/>
    </contour>
  </outline>
</glyph>
<glyph name="estimated" format="2">
  <advance width="716.76087"/>
  <unicode hex="212E"/>
  <outline>
    <contour>
      <point x="358.109" y="-8" type="curve" smooth="yes"/>
      <point x="577.261" y="-8"/>
      <point x="622.543" y="22.348"/>
      <point x="633" y="200" type="curve"/>
      <point x="597" y="200" type="line"/>
      <point x="586.543" y="37.609"/>
      <point x="545.978" y="26"/>
      <point x="368.978" y="26" type="curve" smooth="yes"/>
      <point x="179.804" y="26"/>
      <point x="162.87" y="32.543"/>
      <point x="162.413" y="323" type="curve"/>
      <point x="640.348" y="323" type="line"/>
      <point x="640.348" y="344" type="line" smooth="yes"/>
      <point x="640.348" y="639.065"/>
      <point x="625.978" y="696"/>
      <point x="358.109" y="696" type="curve" smooth="yes"/>
      <point x="90.239" y="696"/>
      <point x="76.413" y="639.065"/>
      <point x="76.413" y="344" type="curve" smooth="yes"/>
      <point x="76.413" y="48.935"/>
      <point x="90.239" y="-8"/>
    </contour>
    <contour>
      <point x="162.413" y="357" type="line"/>
      <point x="162.87" y="655.457"/>
      <point x="177.261" y="662"/>
      <point x="358.109" y="662" type="curve" smooth="yes"/>
      <point x="538.957" y="662"/>
      <point x="553.891" y="655.457"/>
      <point x="554.348" y="357" type="curve"/>
    </contour>
  </outline>
</glyph>
<glyph name="product" format="2">
  <advance width="731.47826"/>
  <unicode hex="220F"/>
  <outline>
    <contour>
      <point x="99.783" y="-189.457" type="line"/>
      <point x="185.239" y="-189.457" type="line"/>
      <point x="185.239" y="613.783" type="line"/>
      <point x="545.152" y="613.783" type="line"/>
      <point x="545.152" y="-189.457" type="line"/>
      <point x="631.152" y="-189.457" type="line"/>
      <point x="631.152" y="688" type="line"/>
      <point x="99.783" y="688" type="line"/>
    </contour>
  </outline>
</glyph>
<glyph name="lozenge" format="2">
  <advance width="540"/>
  <unicode hex="25CA"/>
  <outline>
    <contour>
      <point x="230.957" y="0" type="line"/>
      <point x="308.5" y="0" type="line"/>
      <point x="483.978" y="344" type="line"/>
      <point x="308.5" y="688.457" type="line"/>
      <point x="230.957" y="688.457" type="line"/>
      <point x="55.478" y="344" type="line"/>
    </contour>
    <contour>
      <point x="270" y="56.152" type="line"/>
      <point x="122.37" y="344" type="line"/>
      <point x="270" y="631.761" type="line"/>
      <point x="417.087" y="344" type="line"/>
    </contour>
  </outline>
</glyph>
<glyph name="saltillo" format="2">
  <advance width="244.23913"/>
  <unicode hex="A78C"/>
  <outline>
    <contour>
      <point x="83.696" y="283.674" type="line"/>
      <point x="138.022" y="283.674" type="line"/>
      <point x="160.543" y="510" type="line"/>
      <point x="160.543" y="743" type="line"/>
      <point x="83.696" y="743" type="line"/>
    </contour>
  </outline>
</glyph>
<glyph name="C.001" format="2">
  <advance width="572"/>
  <anchor x="270" y="0" name="bottom"/>
  <anchor x="270" y="688" name="top"/>
  <outline>
    <contour>
      <point x="338" y="-8" type="curve" smooth="yes"/>
      <point x="394" y="-8"/>
      <point x="460" y="-3"/>
      <point x="498" y="5" type="curve"/>
      <point x="498" y="177" type="line"/>
      <point x="461" y="174"/>
      <point x="398" y="172"/>
      <point x="338" y="172" type="curve" smooth="yes"/>
      <point x="155" y="172"/>
      <point x="142" y="183"/>
      <point x="142" y="310" type="curve" smooth="yes"/>
      <point x="142" y="378" type="line" smooth="yes"/>
      <point x="142" y="505"/>
      <point x="155" y="516"/>
      <point x="338" y="516" type="curve" smooth="yes"/>
      <point x="395" y="516"/>
      <point x="451" y="514"/>
      <point x="494" y="511" type="curve"/>
      <point x="494" y="681" type="line"/>
      <point x="457" y="690"/>
      <point x="392" y="696"/>
      <point x="338" y="696" type="curve" smooth="yes"/>
      <point x="102" y="696"/>
      <point x="60" y="644"/>
      <point x="60" y="349" type="curve" smooth="yes"/>
      <point x="60" y="339" type="line" smooth="yes"/>
      <point x="60" y="44"/>
      <point x="102" y="-8"/>
    </contour>
  </outline>
</glyph>
<glyph name="M.001" format="2">
  <advance width="930"/>
  <anchor x="465" y="0" name="bottom"/>
  <anchor x="465" y="688" name="top"/>
  <outline>
    <contour>
      <point x="78" y="0" type="line"/>
      <point x="308" y="0" type="line"/>
      <point x="308" y="478" type="line"/>
      <point x="312" y="478" type="line"/>
      <point x="470" y="0" type="line"/>
      <point x="608" y="0" type="line"/>
      <point x="766" y="478" type="line"/>
      <point x="770" y="478" type="line"/>
      <point x="770" y="0" type="line"/>
      <point x="852" y="0" type="line"/>
      <point x="852" y="688" type="line"/>
      <point x="608" y="688" type="line"/>
      <point x="464" y="240" type="line"/>
      <point x="459" y="240" type="line"/>
      <point x="317" y="688" type="line"/>
      <point x="78" y="688" type="line"/>
    </contour>
  </outline>
</glyph>
<glyph name="Y.001" format="2">
  <advance width="619"/>
  <anchor x="251" y="0" name="bottom"/>
  <anchor x="251" y="688" name="top"/>
  <anchor x="-42" y="688" name="topleft"/>
  <outline>
    <contour>
      <point x="268" y="0" type="line"/>
      <point x="350" y="0" type="line"/>
      <point x="350" y="344" type="line"/>
      <point x="329" y="232" type="line"/>
      <point x="611" y="688" type="line"/>
      <point x="359" y="688" type="line"/>
      <point x="230" y="471" type="line"/>
      <point x="226" y="471" type="line"/>
      <point x="97" y="688" type="line"/>
      <point x="8" y="688" type="line"/>
      <point x="289" y="232" type="line"/>
      <point x="268" y="344" type="line"/>
    </contour>
  </outline>
</glyph>
<glyph name="Z.001" format="2">
  <advance width="719"/>
  <anchor x="391" y="0" name="bottom"/>
  <anchor x="391" y="344" name="center"/>
  <anchor x="391" y="688" name="top"/>
  <outline>
    <contour>
      <point x="57" y="0" type="line"/>
      <point x="662" y="0" type="line"/>
      <point x="662" y="74" type="line"/>
      <point x="320" y="74" type="line"/>
      <point x="656" y="622" type="line"/>
      <point x="656" y="688" type="line"/>
      <point x="67" y="688" type="line"/>
      <point x="67" y="614" type="line"/>
      <point x="393" y="614" type="line"/>
      <point x="57" y="66" type="line"/>
    </contour>
  </outline>
</glyph>
<glyph name="brevecomb_acutecomb.case" format="2">
  <advance width="278.73913"/>
  <anchor x="138.239" y="510" name="_top"/>
  <anchor x="138.239" y="855.739" name="top"/>
  <outline>
    <contour>
      <point x="136.696" y="585.587" type="curve" smooth="yes"/>
      <point x="267.413" y="585.587"/>
      <point x="275.478" y="645.674"/>
      <point x="275.478" y="729.848" type="curve"/>
      <point x="222.196" y="729.848" type="line"/>
      <point x="222.196" y="669.522"/>
      <point x="220.196" y="636.957"/>
      <point x="136.696" y="636.957" type="curve" smooth="yes"/>
      <point x="53.196" y="636.957"/>
      <point x="52.739" y="669.522"/>
      <point x="52.739" y="729.848" type="curve"/>
      <point x="0" y="729.848" type="line"/>
      <point x="0" y="645.674"/>
      <point x="6.522" y="585.587"/>
    </contour>
    <contour>
      <point x="85.304" y="766.87" type="line"/>
      <point x="145.457" y="766.87" type="line"/>
      <point x="274.174" y="902.587" type="line"/>
      <point x="274.174" y="907.587" type="line"/>
      <point x="186.326" y="907.587" type="line"/>
      <point x="85.304" y="771.87" type="line"/>
    </contour>
  </outline>
</glyph>
<glyph name="c.002" format="2">
  <advance width="448"/>
  <anchor x="221" y="0" name="bottom"/>
  <anchor x="221" y="510" name="top"/>
  <outline>
    <contour>
      <point x="274" y="-8" type="curve" smooth="yes"/>
      <point x="324" y="-8"/>
      <point x="381" y="-2"/>
      <point x="415" y="7" type="curve"/>
      <point x="415" y="185" type="line"/>
      <point x="378" y="178"/>
      <point x="317" y="172"/>
      <point x="269" y="172" type="curve" smooth="yes"/>
      <point x="146" y="172"/>
      <point x="137" y="178"/>
      <point x="137" y="244" type="curve" smooth="yes"/>
      <point x="137" y="266" type="line" smooth="yes"/>
      <point x="137" y="332"/>
      <point x="146" y="338"/>
      <point x="269" y="338" type="curve" smooth="yes"/>
      <point x="315" y="338"/>
      <point x="374" y="333"/>
      <point x="410" y="325" type="curve"/>
      <point x="410" y="503" type="line"/>
      <point x="377" y="512"/>
      <point x="322" y="518"/>
      <point x="274" y="518" type="curve" smooth="yes"/>
      <point x="88" y="518"/>
      <point x="55" y="479"/>
      <point x="55" y="259" type="curve" smooth="yes"/>
      <point x="55" y="251" type="line" smooth="yes"/>
      <point x="55" y="31"/>
      <point x="88" y="-8"/>
    </contour>
  </outline>
</glyph>
<glyph name="c.004" format="2">
  <advance width="428"/>
  <anchor x="221" y="0" name="bottom"/>
  <anchor x="221" y="510" name="top"/>
  <outline>
    <contour>
      <point x="264" y="-8" type="curve" smooth="yes"/>
      <point x="309" y="-8"/>
      <point x="363" y="-2"/>
      <point x="395" y="7" type="curve"/>
      <point x="395" y="185" type="line"/>
      <point x="362" y="178"/>
      <point x="304" y="172"/>
      <point x="259" y="172" type="curve" smooth="yes"/>
      <point x="145" y="172"/>
      <point x="137" y="178"/>
      <point x="137" y="244" type="curve" smooth="yes"/>
      <point x="137" y="266" type="line" smooth="yes"/>
      <point x="137" y="332"/>
      <point x="145" y="338"/>
      <point x="259" y="338" type="curve" smooth="yes"/>
      <point x="302" y="338"/>
      <point x="358" y="333"/>
      <point x="390" y="325" type="curve"/>
      <point x="390" y="503" type="line"/>
      <point x="359" y="512"/>
      <point x="309" y="518"/>
      <point x="264" y="518" type="curve" smooth="yes"/>
      <point x="86" y="518"/>
      <point x="55" y="479"/>
      <point x="55" y="259" type="curve" smooth="yes"/>
      <point x="55" y="251" type="line" smooth="yes"/>
      <point x="55" y="31"/>
      <point x="86" y="-8"/>
    </contour>
  </outline>
</glyph>
<glyph name="circumflexcomb_tildecomb" format="2">
  <advance width="341.47826"/>
  <anchor x="171.783" y="510" name="_top"/>
  <anchor x="171.783" y="866" name="top"/>
  <outline>
    <contour>
      <point x="27.109" y="594.587" type="line"/>
      <point x="82.913" y="594.587" type="line"/>
      <point x="171.239" y="691.174" type="line"/>
      <point x="260.109" y="594.587" type="line"/>
      <point x="316.457" y="594.587" type="line"/>
      <point x="316.457" y="600.674" type="line"/>
      <point x="214.348" y="735.304" type="line"/>
      <point x="128.674" y="735.304" type="line"/>
      <point x="27.109" y="600.674" type="line"/>
    </contour>
    <contour>
      <point x="0" y="779.978" type="curve"/>
      <point x="47.652" y="779.978" type="line"/>
      <point x="47.652" y="820.63"/>
      <point x="49.935" y="834.37"/>
      <point x="78.848" y="834.37" type="curve" smooth="yes"/>
      <point x="104.326" y="834.37"/>
      <point x="131.239" y="824.543"/>
      <point x="159.152" y="815.174" type="curve" smooth="yes"/>
      <point x="194.978" y="803.348"/>
      <point x="228.065" y="790.978"/>
      <point x="268.065" y="790.978" type="curve" smooth="yes"/>
      <point x="334.196" y="790.978"/>
      <point x="341.478" y="826.848"/>
      <point x="341.478" y="905" type="curve"/>
      <point x="294.37" y="905" type="line"/>
      <point x="294.37" y="864.348"/>
      <point x="292.087" y="850.609"/>
      <point x="263.174" y="850.609" type="curve" smooth="yes"/>
      <point x="236.065" y="850.609"/>
      <point x="210.783" y="860.435"/>
      <point x="182.87" y="869.804" type="curve" smooth="yes"/>
      <point x="147.043" y="881.63"/>
      <point x="110.957" y="894"/>
      <point x="73.957" y="894" type="curve" smooth="yes"/>
      <point x="7.283" y="894"/>
      <point x="0" y="858.13"/>
    </contour>
  </outline>
</glyph>
<glyph name="dieresisbelowcomb.case" format="2">
  <advance width="283.43478"/>
  <anchor x="141.674" y="0" name="_bottom"/>
  <anchor x="141.674" y="-142.565" name="bottom"/>
  <outline>
    <contour>
      <point x="0" y="-164.739" type="line"/>
      <point x="76.696" y="-164.739" type="line"/>
      <point x="76.696" y="-84.174" type="line"/>
      <point x="0" y="-84.174" type="line"/>
    </contour>
    <contour>
      <point x="206.739" y="-164.739" type="line"/>
      <point x="283.435" y="-164.739" type="line"/>
      <point x="283.435" y="-84.174" type="line"/>
      <point x="206.739" y="-84.174" type="line"/>
    </contour>
  </outline>
</glyph>
<glyph name="five.numr" format="2">
  <advance width="362.36957"/>
  <outline>
    <contour>
      <point x="168.543" y="304" type="curve" smooth="yes"/>
      <point x="293.174" y="304"/>
      <point x="321.717" y="339.261"/>
      <point x="321.717" y="426.804" type="curve" smooth="yes"/>
      <point x="321.717" y="497.348"/>
      <point x="303.543" y="536.522"/>
      <point x="192.696" y="536.522" type="curve" smooth="yes"/>
      <point x="161.957" y="536.522"/>
      <point x="129.761" y="534.522"/>
      <point x="107.391" y="531.065" type="curve"/>
      <point x="107.391" y="635.783" type="line"/>
      <point x="293.261" y="635.783" type="line"/>
      <point x="293.261" y="685.087" type="line"/>
      <point x="52.826" y="685.087" type="line"/>
      <point x="52.826" y="481.848" type="line"/>
      <point x="88.652" y="485.304"/>
      <point x="129.283" y="488.304"/>
      <point x="153" y="488.304" type="curve" smooth="yes"/>
      <point x="241.609" y="488.304"/>
      <point x="260.804" y="479.935"/>
      <point x="260.804" y="421.261" type="curve" smooth="yes"/>
      <point x="260.804" y="366.413"/>
      <point x="243.609" y="352.761"/>
      <point x="160.283" y="352.761" type="curve" smooth="yes"/>
      <point x="133.283" y="352.761"/>
      <point x="85.739" y="355.761"/>
      <point x="48.826" y="358.761" type="curve"/>
      <point x="48.826" y="313.087" type="line"/>
      <point x="83.457" y="307.543"/>
      <point x="134" y="304"/>
    </contour>
  </outline>
</glyph>
<glyph name="n.001" format="2">
  <advance width="580"/>
  <anchor x="290" y="0" name="bottom"/>
  <anchor x="290" y="510" name="top"/>
  <outline>
    <contour>
      <point x="78" y="0" type="line"/>
      <point x="160" y="0" type="line"/>
      <point x="160" y="182" type="line" smooth="yes"/>
      <point x="160" y="300"/>
      <point x="180" y="318"/>
      <point x="312" y="318" type="curve" smooth="yes"/>
      <point x="405" y="318"/>
      <point x="424" y="297"/>
      <point x="424" y="194" type="curve" smooth="yes"/>
      <point x="424" y="0" type="line"/>
      <point x="506" y="0" type="line"/>
      <point x="506" y="319" type="line" smooth="yes"/>
      <point x="506" y="472"/>
      <point x="466" y="518"/>
      <point x="333" y="518" type="curve" smooth="yes"/>
      <point x="238" y="518"/>
      <point x="185" y="493"/>
      <point x="161" y="437" type="curve"/>
      <point x="157" y="437" type="line"/>
      <point x="148" y="510" type="line"/>
      <point x="78" y="510" type="line"/>
    </contour>
  </outline>
</glyph>
<glyph name="nine.dnom" format="2">
  <advance width="378"/>
  <outline>
    <contour>
      <point x="172.63" y="-4" type="curve" smooth="yes"/>
      <point x="257.543" y="-4"/>
      <point x="301.543" y="10.087"/>
      <point x="319.717" y="62.913" type="curve" smooth="yes"/>
      <point x="330.804" y="95.283"/>
      <point x="333.891" y="135.826"/>
      <point x="333.891" y="191.457" type="curve" smooth="yes"/>
      <point x="333.891" y="247.37"/>
      <point x="332.348" y="286.37"/>
      <point x="323.348" y="316.913" type="curve" smooth="yes"/>
      <point x="306.348" y="375"/>
      <point x="262.348" y="382.087"/>
      <point x="177.174" y="382.087" type="curve" smooth="yes"/>
      <point x="55.543" y="382.087"/>
      <point x="31.913" y="352.739"/>
      <point x="31.913" y="255.826" type="curve" smooth="yes"/>
      <point x="31.913" y="161.739"/>
      <point x="71.087" y="148.109"/>
      <point x="163.022" y="148.109" type="curve" smooth="yes"/>
      <point x="235.326" y="148.109"/>
      <point x="258.609" y="163.196"/>
      <point x="269.978" y="174.565" type="curve"/>
      <point x="272.978" y="174.565" type="line"/>
      <point x="272.978" y="62.5"/>
      <point x="261.065" y="44.761"/>
      <point x="160.826" y="44.761" type="curve" smooth="yes"/>
      <point x="134.543" y="44.761"/>
      <point x="90.63" y="47.761"/>
      <point x="53.457" y="51.761" type="curve"/>
      <point x="53.457" y="6.087" type="line"/>
      <point x="91.457" y="-0.457"/>
      <point x="142.087" y="-4"/>
    </contour>
    <contour>
      <point x="181.087" y="196.326" type="curve" smooth="yes"/>
      <point x="104.935" y="196.326"/>
      <point x="90.652" y="201.326"/>
      <point x="90.652" y="266.826" type="curve" smooth="yes"/>
      <point x="90.652" y="329.413"/>
      <point x="107.848" y="332.87"/>
      <point x="181.087" y="332.87" type="curve" smooth="yes"/>
      <point x="251.783" y="332.87"/>
      <point x="271.435" y="327.043"/>
      <point x="271.435" y="254.63" type="curve" smooth="yes"/>
      <point x="271.435" y="210.152"/>
      <point x="263.609" y="196.326"/>
    </contour>
  </outline>
</glyph>
<glyph name="orn.002" format="2">
  <advance width="549"/>
  <outline>
    <contour>
      <point x="210" y="46" type="curve"/>
      <point x="242" y="96" type="line"/>
      <point x="159" y="148"/>
      <point x="104" y="239"/>
      <point x="104" y="344" type="curve" smooth="yes"/>
      <point x="104" y="448"/>
      <point x="160" y="540"/>
      <point x="242" y="591" type="curve"/>
      <point x="210" y="642" type="line"/>
      <point x="111" y="580"/>
      <point x="44" y="469"/>
      <point x="44" y="344" type="curve" smooth="yes"/>
      <point x="44" y="218"/>
      <point x="111" y="108"/>
    </contour>
    <contour>
      <point x="273" y="147" type="curve"/>
      <point x="305" y="198" type="line"/>
      <point x="257" y="229"/>
      <point x="224" y="282"/>
      <point x="224" y="344" type="curve" smooth="yes"/>
      <point x="224" y="405"/>
      <point x="257" y="459"/>
      <point x="306" y="490" type="curve"/>
      <point x="274" y="541" type="line"/>
      <point x="208" y="500"/>
      <point x="164" y="427"/>
      <point x="164" y="344" type="curve" smooth="yes"/>
      <point x="164" y="261"/>
      <point x="208" y="188"/>
    </contour>
    <contour>
      <point x="394" y="234" type="curve" smooth="yes"/>
      <point x="459" y="234"/>
      <point x="504" y="279"/>
      <point x="504" y="344" type="curve" smooth="yes"/>
      <point x="504" y="409"/>
      <point x="459" y="454"/>
      <point x="394" y="454" type="curve" smooth="yes"/>
      <point x="329" y="454"/>
      <point x="284" y="409"/>
      <point x="284" y="344" type="curve" smooth="yes"/>
      <point x="284" y="279"/>
      <point x="329" y="234"/>
    </contour>
    <contour>
      <point x="394" y="294" type="curve" smooth="yes"/>
      <point x="365" y="294"/>
      <point x="344" y="316"/>
      <point x="344" y="344" type="curve" smooth="yes"/>
      <point x="344" y="373"/>
      <point x="365" y="394"/>
      <point x="394" y="394" type="curve" smooth="yes"/>
      <point x="422" y="394"/>
      <point x="444" y="373"/>
      <point x="444" y="344" type="curve" smooth="yes"/>
      <point x="444" y="316"/>
      <point x="422" y="294"/>
    </contour>
  </outline>
</glyph>
<glyph name="periodcentered.loclCAT.case" format="2">
  <advance width="85.76087"/>
  <outline>
    <contour>
      <point x="0" y="250.696" type="line"/>
      <point x="85.761" y="250.696" type="line"/>
      <point x="85.761" y="348.304" type="line"/>
      <point x="0" y="348.304" type="line"/>
    </contour>
  </outline>
</glyph>
<glyph name="seven.dnom" format="2">
  <advance width="329.36957"/>
  <outline>
    <contour>
      <point x="77.587" y="0" type="line"/>
      <point x="144.13" y="0" type="line"/>
      <point x="300.63" y="332.87" type="line"/>
      <point x="300.63" y="377.087" type="line"/>
      <point x="24.37" y="377.087" type="line"/>
      <point x="24.37" y="327.783" type="line"/>
      <point x="235.717" y="327.783" type="line"/>
    </contour>
  </outline>
</glyph>
<glyph name="two.numr" format="2">
  <advance width="356.28261"/>
  <outline>
    <contour>
      <point x="40.652" y="308" type="line"/>
      <point x="314.543" y="308" type="line"/>
      <point x="314.543" y="358.304" type="line"/>
      <point x="100.478" y="358.304" type="line"/>
      <point x="100.478" y="387.391" type="line" smooth="yes"/>
      <point x="100.478" y="422.826"/>
      <point x="102.478" y="428.913"/>
      <point x="124.587" y="437.739" type="curve" smooth="yes"/>
      <point x="241.457" y="483.848" type="line" smooth="yes"/>
      <point x="294.37" y="504.848"/>
      <point x="314.543" y="527.022"/>
      <point x="314.543" y="590.739" type="curve" smooth="yes"/>
      <point x="314.543" y="682.913"/>
      <point x="253.913" y="690.087"/>
      <point x="180.37" y="690.087" type="curve" smooth="yes"/>
      <point x="136.826" y="690.087"/>
      <point x="82.283" y="685.543"/>
      <point x="48.652" y="680" type="curve"/>
      <point x="48.652" y="633.783" type="line"/>
      <point x="88.739" y="638.326"/>
      <point x="136.565" y="640.326"/>
      <point x="163.935" y="640.326" type="curve" smooth="yes"/>
      <point x="234.891" y="640.326"/>
      <point x="253.63" y="634.5"/>
      <point x="253.63" y="585.739" type="curve" smooth="yes"/>
      <point x="253.63" y="549.63"/>
      <point x="250.348" y="544.261"/>
      <point x="209.152" y="527.891" type="curve" smooth="yes"/>
      <point x="104.478" y="486.696" type="line" smooth="yes"/>
      <point x="41.652" y="462.239"/>
      <point x="40.652" y="438.804"/>
      <point x="40.652" y="354.348" type="curve" smooth="yes"/>
    </contour>
  </outline>
</glyph>
<glyph name="v.001" format="2">
  <advance width="672"/>
  <anchor x="425" y="0" name="bottom"/>
  <anchor x="425" y="510" name="top"/>
  <outline>
    <contour>
      <point x="214" y="0" type="line"/>
      <point x="449" y="0" type="line"/>
      <point x="645" y="510" type="line"/>
      <point x="419" y="510" type="line"/>
      <point x="265" y="85" type="line"/>
      <point x="261" y="85" type="line"/>
      <point x="112" y="510" type="line"/>
      <point x="27" y="510" type="line"/>
    </contour>
  </outline>
</glyph>
<glyph name="y.loclGUA" format="2">
  <advance width="529.69565"/>
  <anchor x="466.717" y="0" name="bottom"/>
  <anchor x="270.826" y="510" name="top"/>
  <outline>
    <contour>
      <point x="163.457" y="-189.457" type="line"/>
      <point x="247.196" y="-189.457" type="line"/>
      <point x="316.043" y="0" type="line"/>
      <point x="236.587" y="9.022" type="line"/>
    </contour>
    <component base="v"/>
  </outline>
</glyph>
